<svg width="44" height="44" viewBox="0 0 44 44" fill="none" xmlns="http://www.w3.org/2000/svg">
<circle cx="22" cy="22" r="22" fill="white"/>
<g clip-path="url(#clip0_9_655)">
<path d="M22.0001 11.4783C17.7977 11.4783 14.3789 14.8971 14.3789 19.0994C14.3789 24.3145 21.1991 31.9707 21.4895 32.2941C21.7622 32.5979 22.2384 32.5973 22.5106 32.2941C22.801 31.9707 29.6212 24.3145 29.6212 19.0994C29.6211 14.8971 26.2023 11.4783 22.0001 11.4783ZM22.0001 22.9338C19.8858 22.9338 18.1657 21.2137 18.1657 19.0994C18.1657 16.9851 19.8858 15.265 22.0001 15.265C24.1143 15.265 25.8344 16.9851 25.8344 19.0994C25.8344 21.2137 24.1143 22.9338 22.0001 22.9338Z" fill="#6AAFAC"/>
</g>
<defs>
<clipPath id="clip0_9_655">
<rect width="21.0435" height="21.0435" fill="white" transform="translate(11.4783 11.4783)"/>
</clipPath>
</defs>
</svg>
