<svg width="81" height="35" viewBox="0 0 81 35" fill="none" xmlns="http://www.w3.org/2000/svg">
<path fill-rule="evenodd" clip-rule="evenodd" d="M63.5 32.8125C67.5611 32.8125 71.4559 31.1992 74.3276 28.3276C77.1992 25.4559 78.8125 21.5611 78.8125 17.5C78.8125 13.4389 77.1992 9.54408 74.3276 6.67243C71.4559 3.80078 67.5611 2.1875 63.5 2.1875C59.4389 2.1875 55.5441 3.80078 52.6724 6.67243C49.8008 9.54408 48.1875 13.4389 48.1875 17.5C48.1875 21.5611 49.8008 25.4559 52.6724 28.3276C55.5441 31.1992 59.4389 32.8125 63.5 32.8125ZM63.5 35C68.1413 35 72.5925 33.1563 75.8744 29.8744C79.1563 26.5925 81 22.1413 81 17.5C81 12.8587 79.1563 8.40752 75.8744 5.12563C72.5925 1.84375 68.1413 0 63.5 0C58.8587 0 54.4075 1.84375 51.1256 5.12563C47.8437 8.40752 46 12.8587 46 17.5C46 22.1413 47.8437 26.5925 51.1256 29.8744C54.4075 33.1563 58.8587 35 63.5 35Z" fill="white"/>
<path fill-rule="evenodd" clip-rule="evenodd" d="M55 17.5C55 17.7841 55.1119 18.0566 55.3112 18.2575C55.5104 18.4584 55.7806 18.5712 56.0624 18.5712H68.3711L63.8093 23.169C63.7105 23.2686 63.6321 23.3868 63.5787 23.517C63.5252 23.6471 63.4977 23.7866 63.4977 23.9274C63.4977 24.0683 63.5252 24.2077 63.5787 24.3379C63.6321 24.468 63.7105 24.5862 63.8093 24.6858C63.908 24.7854 64.0253 24.8645 64.1544 24.9184C64.2834 24.9723 64.4217 25 64.5614 25C64.7011 25 64.8394 24.9723 64.9685 24.9184C65.0976 24.8645 65.2148 24.7854 65.3136 24.6858L71.6879 18.2584C71.7868 18.1589 71.8653 18.0407 71.9189 17.9106C71.9724 17.7804 72 17.6409 72 17.5C72 17.3591 71.9724 17.2196 71.9189 17.0894C71.8653 16.9593 71.7868 16.8411 71.6879 16.7416L65.3136 10.3142C65.2148 10.2146 65.0976 10.1355 64.9685 10.0816C64.8394 10.0277 64.7011 10 64.5614 10C64.4217 10 64.2834 10.0277 64.1544 10.0816C64.0253 10.1355 63.908 10.2146 63.8093 10.3142C63.7105 10.4138 63.6321 10.532 63.5787 10.6621C63.5252 10.7923 63.4977 10.9317 63.4977 11.0726C63.4977 11.2134 63.5252 11.3529 63.5787 11.4831C63.6321 11.6132 63.7105 11.7314 63.8093 11.831L68.3711 16.4288H56.0624C55.7806 16.4288 55.5104 16.5416 55.3112 16.7425C55.1119 16.9434 55 17.2159 55 17.5Z" fill="white"/>
<path fill-rule="evenodd" clip-rule="evenodd" d="M17.5 32.8125C13.4389 32.8125 9.54408 31.1992 6.67243 28.3276C3.80078 25.4559 2.1875 21.5611 2.1875 17.5C2.1875 13.4389 3.80078 9.54408 6.67243 6.67243C9.54408 3.80078 13.4389 2.1875 17.5 2.1875C21.5611 2.1875 25.4559 3.80078 28.3276 6.67243C31.1992 9.54408 32.8125 13.4389 32.8125 17.5C32.8125 21.5611 31.1992 25.4559 28.3276 28.3276C25.4559 31.1992 21.5611 32.8125 17.5 32.8125ZM17.5 35C12.8587 35 8.40752 33.1563 5.12563 29.8744C1.84374 26.5925 0 22.1413 0 17.5C0 12.8587 1.84374 8.40752 5.12563 5.12563C8.40752 1.84375 12.8587 0 17.5 0C22.1413 0 26.5925 1.84375 29.8744 5.12563C33.1563 8.40752 35 12.8587 35 17.5C35 22.1413 33.1563 26.5925 29.8744 29.8744C26.5925 33.1563 22.1413 35 17.5 35Z" fill="white"/>
<path fill-rule="evenodd" clip-rule="evenodd" d="M26.25 17.5C26.25 17.7901 26.1348 18.0683 25.9296 18.2734C25.7245 18.4785 25.4463 18.5937 25.1562 18.5937H12.4841L17.1806 23.2881C17.2823 23.3898 17.363 23.5105 17.418 23.6434C17.4731 23.7763 17.5014 23.9187 17.5014 24.0625C17.5014 24.2063 17.4731 24.3487 17.418 24.4816C17.363 24.6144 17.2823 24.7352 17.1806 24.8369C17.0789 24.9385 16.9582 25.0192 16.8253 25.0743C16.6925 25.1293 16.5501 25.1576 16.4062 25.1576C16.2624 25.1576 16.12 25.1293 15.9872 25.0743C15.8543 25.0192 15.7336 24.9385 15.6319 24.8369L9.06937 18.2744C8.96752 18.1728 8.8867 18.0521 8.83156 17.9192C8.77643 17.7863 8.74804 17.6438 8.74804 17.5C8.74804 17.3561 8.77643 17.2137 8.83156 17.0808C8.8867 16.9479 8.96752 16.8272 9.06937 16.7256L15.6319 10.1631C15.7336 10.0614 15.8543 9.98074 15.9872 9.92571C16.12 9.87067 16.2624 9.84235 16.4062 9.84235C16.5501 9.84235 16.6925 9.87067 16.8253 9.92571C16.9582 9.98074 17.0789 10.0614 17.1806 10.1631C17.2823 10.2648 17.363 10.3855 17.418 10.5184C17.4731 10.6513 17.5014 10.7937 17.5014 10.9375C17.5014 11.0813 17.4731 11.2237 17.418 11.3566C17.363 11.4894 17.2823 11.6102 17.1806 11.7119L12.4841 16.4062H25.1562C25.4463 16.4062 25.7245 16.5215 25.9296 16.7266C26.1348 16.9317 26.25 17.2099 26.25 17.5Z" fill="white"/>
</svg>
