<svg width="37" height="33" viewBox="0 0 37 33" fill="none" xmlns="http://www.w3.org/2000/svg">
<mask id="path-1-inside-1_5_22" fill="white">
<path d="M6.37334 17.4241C6.3714 17.4136 6.36964 17.4031 6.36807 17.3925L4.15158 4.09357C3.9326 2.77964 2.79578 1.81662 1.46373 1.81662H0.908309C0.406664 1.81662 0 1.40995 0 0.908309C0 0.406664 0.406664 0 0.908309 0H1.46373C3.62881 0 5.48442 1.52649 5.91356 3.63324H35.4241C36.0275 3.63324 36.4632 4.21084 36.2974 4.79108L32.6642 17.5074C32.5528 17.8973 32.1964 18.1662 31.7908 18.1662H8.3387L8.56475 19.5225C8.78373 20.8364 9.92055 21.7994 11.2526 21.7994H31.7908C32.2925 21.7994 32.6991 22.2061 32.6991 22.7077C32.6991 23.2094 32.2925 23.616 31.7908 23.616H11.2526C9.03251 23.616 7.13782 22.011 6.77284 19.8211L6.37334 17.4241ZM6.21931 5.44986L8.03593 16.3496H31.1057L34.2199 5.44986H6.21931ZM10.8997 32.6991C8.89313 32.6991 7.26647 31.0725 7.26647 29.0659C7.26647 27.0593 8.89313 25.4327 10.8997 25.4327C12.9063 25.4327 14.5329 27.0593 14.5329 29.0659C14.5329 31.0725 12.9063 32.6991 10.8997 32.6991ZM10.8997 30.8825C11.903 30.8825 12.7163 30.0692 12.7163 29.0659C12.7163 28.0626 11.903 27.2493 10.8997 27.2493C9.89642 27.2493 9.08309 28.0626 9.08309 29.0659C9.08309 30.0692 9.89642 30.8825 10.8997 30.8825ZM27.2493 32.6991C25.2427 32.6991 23.616 31.0725 23.616 29.0659C23.616 27.0593 25.2427 25.4327 27.2493 25.4327C29.2559 25.4327 30.8825 27.0593 30.8825 29.0659C30.8825 31.0725 29.2559 32.6991 27.2493 32.6991ZM27.2493 30.8825C28.2526 30.8825 29.0659 30.0692 29.0659 29.0659C29.0659 28.0626 28.2526 27.2493 27.2493 27.2493C26.246 27.2493 25.4327 28.0626 25.4327 29.0659C25.4327 30.0692 26.246 30.8825 27.2493 30.8825Z"/>
</mask>
<path d="M6.37334 17.4241C6.3714 17.4136 6.36964 17.4031 6.36807 17.3925L4.15158 4.09357C3.9326 2.77964 2.79578 1.81662 1.46373 1.81662H0.908309C0.406664 1.81662 0 1.40995 0 0.908309C0 0.406664 0.406664 0 0.908309 0H1.46373C3.62881 0 5.48442 1.52649 5.91356 3.63324H35.4241C36.0275 3.63324 36.4632 4.21084 36.2974 4.79108L32.6642 17.5074C32.5528 17.8973 32.1964 18.1662 31.7908 18.1662H8.3387L8.56475 19.5225C8.78373 20.8364 9.92055 21.7994 11.2526 21.7994H31.7908C32.2925 21.7994 32.6991 22.2061 32.6991 22.7077C32.6991 23.2094 32.2925 23.616 31.7908 23.616H11.2526C9.03251 23.616 7.13782 22.011 6.77284 19.8211L6.37334 17.4241ZM6.21931 5.44986L8.03593 16.3496H31.1057L34.2199 5.44986H6.21931ZM10.8997 32.6991C8.89313 32.6991 7.26647 31.0725 7.26647 29.0659C7.26647 27.0593 8.89313 25.4327 10.8997 25.4327C12.9063 25.4327 14.5329 27.0593 14.5329 29.0659C14.5329 31.0725 12.9063 32.6991 10.8997 32.6991ZM10.8997 30.8825C11.903 30.8825 12.7163 30.0692 12.7163 29.0659C12.7163 28.0626 11.903 27.2493 10.8997 27.2493C9.89642 27.2493 9.08309 28.0626 9.08309 29.0659C9.08309 30.0692 9.89642 30.8825 10.8997 30.8825ZM27.2493 32.6991C25.2427 32.6991 23.616 31.0725 23.616 29.0659C23.616 27.0593 25.2427 25.4327 27.2493 25.4327C29.2559 25.4327 30.8825 27.0593 30.8825 29.0659C30.8825 31.0725 29.2559 32.6991 27.2493 32.6991ZM27.2493 30.8825C28.2526 30.8825 29.0659 30.0692 29.0659 29.0659C29.0659 28.0626 28.2526 27.2493 27.2493 27.2493C26.246 27.2493 25.4327 28.0626 25.4327 29.0659C25.4327 30.0692 26.246 30.8825 27.2493 30.8825Z" fill="white"/>
<path d="M6.37334 17.4241L11.8659 16.5086L11.8578 16.46L11.8489 16.4116L6.37334 17.4241ZM6.36807 17.3925L11.876 16.5743L11.8688 16.5256L11.8607 16.477L6.36807 17.3925ZM4.15158 4.09357L-1.34102 5.00901L-1.34102 5.00901L4.15158 4.09357ZM5.91356 3.63324L0.457239 4.74468L1.36511 9.20161H5.91356V3.63324ZM36.2974 4.79108L41.6515 6.32083L41.6515 6.32083L36.2974 4.79108ZM32.6642 17.5074L38.0183 19.0372L38.0183 19.0372L32.6642 17.5074ZM8.3387 18.1662V12.5978H1.76546L2.84609 19.0816L8.3387 18.1662ZM8.56475 19.5225L14.0574 18.607L14.0573 18.607L8.56475 19.5225ZM6.77284 19.8211L1.28024 20.7366L6.77284 19.8211ZM6.21931 5.44986V-0.118512H-0.353929L0.726705 6.36529L6.21931 5.44986ZM8.03593 16.3496L2.54332 17.265L3.31881 21.9179H8.03593V16.3496ZM31.1057 16.3496V21.9179H35.3059L36.4598 17.8793L31.1057 16.3496ZM34.2199 5.44986L39.574 6.97961L41.602 -0.118512L34.2199 -0.118512V5.44986ZM11.8489 16.4116C11.8588 16.4654 11.8679 16.5196 11.876 16.5743L0.860138 18.2107C0.871404 18.2865 0.88397 18.3618 0.897794 18.4366L11.8489 16.4116ZM11.8607 16.477L9.64419 3.17814L-1.34102 5.00901L0.875465 18.3079L11.8607 16.477ZM9.64419 3.17814C8.9777 -0.820788 5.51782 -3.75175 1.46373 -3.75175V7.38499C0.0737462 7.38499 -1.11251 6.38008 -1.34102 5.00901L9.64419 3.17814ZM1.46373 -3.75175H0.908309V7.38499H1.46373V-3.75175ZM0.908309 -3.75175C3.48199 -3.75175 5.56837 -1.66537 5.56837 0.908309H-5.56837C-5.56837 4.48528 -2.66866 7.38499 0.908309 7.38499V-3.75175ZM5.56837 0.908309C5.56837 3.48199 3.48199 5.56837 0.908309 5.56837V-5.56837C-2.66866 -5.56837 -5.56837 -2.66866 -5.56837 0.908309H5.56837ZM0.908309 5.56837H1.46373V-5.56837H0.908309V5.56837ZM1.46373 5.56837C0.973519 5.56837 0.554741 5.22334 0.457239 4.74468L11.3699 2.52179C10.4141 -2.17036 6.2841 -5.56837 1.46373 -5.56837V5.56837ZM5.91356 9.20161H35.4241V-1.93513H5.91356V9.20161ZM35.4241 9.20161C32.328 9.20161 30.0928 6.23826 30.9433 3.26133L41.6515 6.32083C42.8337 2.18341 39.727 -1.93513 35.4241 -1.93513V9.20161ZM30.9433 3.26133L27.3101 15.9777L38.0183 19.0372L41.6515 6.32083L30.9433 3.26133ZM27.3101 15.9777C27.8817 13.9771 29.7102 12.5978 31.7908 12.5978V23.7346C34.6825 23.7346 37.2239 21.8176 38.0183 19.0372L27.3101 15.9777ZM31.7908 12.5978H8.3387V23.7346H31.7908V12.5978ZM2.84609 19.0816L3.07214 20.4379L14.0573 18.607L13.8313 17.2507L2.84609 19.0816ZM3.07214 20.4379C3.73863 24.4368 7.19851 27.3678 11.2526 27.3678V16.2311C12.6426 16.2311 13.8288 17.236 14.0574 18.607L3.07214 20.4379ZM11.2526 27.3678H31.7908V16.2311H11.2526V27.3678ZM31.7908 27.3678C29.2171 27.3678 27.1308 25.2814 27.1308 22.7077H38.2675C38.2675 19.1308 35.3678 16.2311 31.7908 16.2311V27.3678ZM27.1308 22.7077C27.1308 20.1341 29.2171 18.0477 31.7908 18.0477V29.1844C35.3678 29.1844 38.2675 26.2847 38.2675 22.7077H27.1308ZM31.7908 18.0477H11.2526V29.1844H31.7908V18.0477ZM11.2526 18.0477C11.7545 18.0477 12.1829 18.4106 12.2654 18.9057L1.28024 20.7366C2.09272 25.6114 6.31047 29.1844 11.2526 29.1844V18.0477ZM12.2654 18.9057L11.8659 16.5086L0.880733 18.3395L1.28024 20.7366L12.2654 18.9057ZM0.726705 6.36529L2.54332 17.265L13.5285 15.4341L11.7119 4.53442L0.726705 6.36529ZM8.03593 21.9179H31.1057V10.7812H8.03593V21.9179ZM36.4598 17.8793L39.574 6.97961L28.8658 3.92011L25.7516 14.8198L36.4598 17.8793ZM34.2199 -0.118512H6.21931V11.0182H34.2199V-0.118512ZM10.8997 27.1308C11.9685 27.1308 12.8348 27.9972 12.8348 29.0659H1.69811C1.69811 34.1478 5.81781 38.2675 10.8997 38.2675V27.1308ZM12.8348 29.0659C12.8348 30.1346 11.9685 31.001 10.8997 31.001V19.8643C5.81781 19.8643 1.69811 23.984 1.69811 29.0659H12.8348ZM10.8997 31.001C9.83097 31.001 8.96458 30.1346 8.96458 29.0659H20.1013C20.1013 23.984 15.9816 19.8643 10.8997 19.8643V31.001ZM8.96458 29.0659C8.96458 27.9972 9.83097 27.1308 10.8997 27.1308V38.2675C15.9816 38.2675 20.1013 34.1478 20.1013 29.0659H8.96458ZM10.8997 36.4509C14.9783 36.4509 18.2847 33.1445 18.2847 29.0659H7.14796C7.14796 26.9939 8.82768 25.3141 10.8997 25.3141V36.4509ZM18.2847 29.0659C18.2847 24.9873 14.9783 21.6809 10.8997 21.6809V32.8176C8.82768 32.8176 7.14796 31.1379 7.14796 29.0659H18.2847ZM10.8997 21.6809C6.8211 21.6809 3.51473 24.9873 3.51473 29.0659H14.6515C14.6515 31.1379 12.9717 32.8176 10.8997 32.8176V21.6809ZM3.51473 29.0659C3.51473 33.1445 6.8211 36.4509 10.8997 36.4509V25.3141C12.9717 25.3141 14.6515 26.9939 14.6515 29.0659H3.51473ZM27.2493 27.1308C28.318 27.1308 29.1844 27.9972 29.1844 29.0659H18.0477C18.0477 34.1478 22.1674 38.2675 27.2493 38.2675V27.1308ZM29.1844 29.0659C29.1844 30.1346 28.318 31.001 27.2493 31.001V19.8643C22.1674 19.8643 18.0477 23.984 18.0477 29.0659H29.1844ZM27.2493 31.001C26.1805 31.001 25.3141 30.1346 25.3141 29.0659H36.4509C36.4509 23.984 32.3312 19.8643 27.2493 19.8643V31.001ZM25.3141 29.0659C25.3141 27.9972 26.1805 27.1308 27.2493 27.1308V38.2675C32.3312 38.2675 36.4509 34.1478 36.4509 29.0659H25.3141ZM27.2493 36.4509C31.3279 36.4509 34.6343 33.1445 34.6343 29.0659H23.4975C23.4975 26.9939 25.1772 25.3141 27.2493 25.3141V36.4509ZM34.6343 29.0659C34.6343 24.9873 31.3279 21.6809 27.2493 21.6809V32.8176C25.1772 32.8176 23.4975 31.1379 23.4975 29.0659H34.6343ZM27.2493 21.6809C23.1707 21.6809 19.8643 24.9873 19.8643 29.0659H31.001C31.001 31.1379 29.3213 32.8176 27.2493 32.8176V21.6809ZM19.8643 29.0659C19.8643 33.1445 23.1707 36.4509 27.2493 36.4509V25.3141C29.3213 25.3141 31.001 26.9939 31.001 29.0659H19.8643Z" fill="white" mask="url(#path-1-inside-1_5_22)"/>
</svg>
