<svg width="44" height="44" viewBox="0 0 44 44" fill="none" xmlns="http://www.w3.org/2000/svg">
<circle cx="22" cy="22" r="22" fill="white"/>
<path d="M34.771 14.1655L26.8857 22L34.771 29.8345C34.9135 29.5366 35 29.2072 35 28.8555V15.1445C35 14.7928 34.9135 14.4635 34.771 14.1655Z" fill="#6AAFAC"/>
<path d="M32.7149 12.8594H11.2852C10.9334 12.8594 10.6041 12.9459 10.3062 13.0884L20.3844 23.1158C21.2755 24.0069 22.7246 24.0069 23.6157 23.1158L33.6939 13.0884C33.3959 12.9459 33.0666 12.8594 32.7149 12.8594Z" fill="#6AAFAC"/>
<path d="M9.22902 14.1655C9.08648 14.4635 9 14.7928 9 15.1445V28.8555C9 29.2072 9.08648 29.5366 9.22902 29.8345L17.1143 22L9.22902 14.1655Z" fill="#6AAFAC"/>
<path d="M25.8086 23.0771L24.6928 24.193C23.208 25.6778 20.792 25.6778 19.3072 24.193L18.1914 23.0771L10.3062 30.9116C10.6041 31.0542 10.9334 31.1407 11.2852 31.1407H32.7149C33.0666 31.1407 33.3959 31.0542 33.6939 30.9116L25.8086 23.0771Z" fill="#6AAFAC"/>
</svg>
