<svg width="15" height="26" viewBox="0 0 15 26" fill="none" xmlns="http://www.w3.org/2000/svg">
<g id="&#240;&#159;&#166;&#134; icon &#34;facebook bold&#34;">
<path id="Vector" d="M12.4767 0.282898H14.6547V7.65545H12.5231C11.4197 7.65545 10.5224 8.53766 10.498 9.63518V9.63745H13.6125V15.9755H10.498V25.33H3.12541V15.9755H0V9.63745H3.12543C3.15608 4.48616 7.32163 0.317925 12.469 0.282947L12.4724 0.282898H12.4767ZM12.4767 5.47748V2.4609C8.51078 2.50209 5.31043 5.72154 5.3002 9.6909V11.8155H2.17802V13.7975H5.30343V23.152H8.31999V13.7975H11.4345V11.8155H8.31999V9.69188V9.6808C8.31999 7.37456 10.1772 5.50209 12.4777 5.47748H12.48H12.4767Z" fill="white"/>
</g>
</svg>
