<svg width="21" height="16" viewBox="0 0 21 16" fill="none" xmlns="http://www.w3.org/2000/svg">
<path fill-rule="evenodd" clip-rule="evenodd" d="M6.23386 2.85098C6.00073 3.83468 5.17856 4.56157 4.20005 4.56157C3.04027 4.56157 2.1001 3.54044 2.1001 2.28079C2.1001 1.02113 3.04027 0 4.20005 0C5.17856 0 6.00073 0.726886 6.23386 1.71059H20.475C20.7649 1.71059 21 1.96584 21 2.28079C21 2.59573 20.7649 2.85098 20.475 2.85098H6.23386ZM5.25003 2.28079C5.25003 2.91067 4.77989 3.42118 4.20005 3.42118C3.62022 3.42118 3.15008 2.91055 3.15008 2.28079C3.15008 1.65102 3.62022 1.14039 4.20005 1.14039C4.77989 1.14039 5.25003 1.6509 5.25003 2.28079Z" fill="#786D6D"/>
<path d="M0.524989 2.85096H2.16611C2.12289 2.66876 2.09996 2.47765 2.09996 2.28077C2.09996 2.08388 2.12289 1.89277 2.16611 1.71057H0.524989C0.235015 1.71057 0 1.96582 0 2.28077C0 2.59571 0.235015 2.85096 0.524989 2.85096Z" fill="#786D6D"/>
<path fill-rule="evenodd" clip-rule="evenodd" d="M12.5338 13.1148C12.3007 12.1311 11.4784 11.4042 10.5 11.4042C9.5216 11.4042 8.69922 12.1311 8.46619 13.1148H0.524989C0.235015 13.1148 0 13.3701 0 13.685C0 13.9998 0.235015 14.2552 0.524989 14.2552H8.46608C8.69922 15.2389 9.52149 15.9657 10.4999 15.9657C11.4783 15.9657 12.3007 15.2389 12.5337 14.2552H20.4748C20.7647 14.2552 20.9998 13.9998 20.9998 13.685C20.9998 13.3701 20.7647 13.1148 20.4748 13.1148H12.5338ZM10.5 14.8254C11.0799 14.8254 11.55 14.3148 11.55 13.685C11.55 13.0551 11.0799 12.5446 10.5 12.5446C9.92005 12.5446 9.45002 13.0551 9.45002 13.685C9.45002 14.3148 9.92005 14.8254 10.5 14.8254Z" fill="#786D6D"/>
<path fill-rule="evenodd" clip-rule="evenodd" d="M18.8338 7.41274C18.6007 6.42904 17.7784 5.70215 16.8 5.70215C15.8216 5.70215 14.9992 6.42904 14.7662 7.41274H0.524989C0.235015 7.41274 0 7.66811 0 7.98293C0 8.29776 0.235015 8.55313 0.524989 8.55313H14.7662C14.9993 9.53683 15.8216 10.2637 16.8 10.2637C17.7784 10.2637 18.6008 9.53683 18.8338 8.55313H20.4749C20.7648 8.55313 20.9999 8.29776 20.9999 7.98293C20.9999 7.66811 20.7648 7.41274 20.4749 7.41274H18.8338ZM16.8 9.12333C17.3799 9.12333 17.85 8.61282 17.85 7.98293C17.85 7.35305 17.3798 6.84254 16.8 6.84254C16.22 6.84254 15.75 7.35305 15.75 7.98293C15.75 8.61282 16.22 9.12333 16.8 9.12333Z" fill="#786D6D"/>
</svg>
