<svg width="25" height="25" viewBox="0 0 25 25" fill="none" xmlns="http://www.w3.org/2000/svg">
<g id="&#240;&#159;&#166;&#134; icon &#34;instagram bold&#34;">
<path id="Vector" d="M5.07592 0H19.1452C21.9473 0.00300399 24.2181 2.27374 24.2212 5.0756V19.1452C24.2181 21.9473 21.9474 24.2181 19.1455 24.2211H5.07592C2.27381 24.2181 0.00300399 21.9473 0 19.1455V5.07591C0.00300399 2.27378 2.27376 0.00300399 5.07561 0H5.07589H5.07592ZM19.1452 22.115C20.7847 22.1132 22.1132 20.7846 22.1149 19.1454V5.07596C22.1132 3.43654 20.7847 2.10802 19.1454 2.10622H5.07589C3.43647 2.10802 2.10797 3.43654 2.1062 5.07577V19.1453C2.10797 20.7847 3.43647 22.1132 5.07573 22.115H5.07589H19.1452ZM12.1106 6.03423C15.4665 6.03423 18.1869 8.75471 18.1869 12.1106C18.1869 15.4664 15.4664 18.1869 12.1106 18.1869C8.75469 18.1869 6.03424 15.4664 6.03424 12.1106C6.03842 8.75639 8.7564 6.03842 12.1102 6.03423H12.1106ZM12.1106 16.0807C14.3033 16.0807 16.0807 14.3032 16.0807 12.1106C16.0807 9.91791 14.3033 8.1404 12.1106 8.1404C9.9179 8.1404 8.14041 9.91791 8.14041 12.1106C8.14278 14.3023 9.91887 16.0783 12.1103 16.0807H12.1106ZM20.1457 5.58139C20.1457 6.41309 19.4715 7.08731 18.6398 7.08731C17.8081 7.08731 17.1338 6.41309 17.1338 5.58139C17.1338 4.74968 17.808 4.07547 18.6397 4.07547C19.4714 4.07547 20.1457 4.74968 20.1457 5.58139Z" fill="white"/>
</g>
</svg>
