<svg width="19" height="17" viewBox="0 0 19 17" fill="none" xmlns="http://www.w3.org/2000/svg">
<path fill-rule="evenodd" clip-rule="evenodd" d="M18.25 8.49998C18.25 8.79006 18.1348 9.06826 17.9296 9.27338C17.7245 9.4785 17.4463 9.59373 17.1562 9.59373H4.48406L9.18062 14.2881C9.28232 14.3898 9.36298 14.5105 9.41802 14.6434C9.47305 14.7763 9.50138 14.9187 9.50138 15.0625C9.50138 15.2063 9.47305 15.3487 9.41802 15.4816C9.36298 15.6144 9.28232 15.7352 9.18062 15.8369C9.07893 15.9385 8.95821 16.0192 8.82534 16.0743C8.69247 16.1293 8.55006 16.1576 8.40625 16.1576C8.26243 16.1576 8.12003 16.1293 7.98716 16.0743C7.85429 16.0192 7.73357 15.9385 7.63187 15.8369L1.06937 9.27435C0.967516 9.17275 0.886703 9.05206 0.831566 8.91918C0.776426 8.7863 0.748043 8.64385 0.748043 8.49998C0.748043 8.35611 0.776426 8.21366 0.831566 8.08078C0.886703 7.9479 0.967516 7.8272 1.06937 7.7256L7.63187 1.1631C7.73357 1.06141 7.85429 0.980744 7.98716 0.925708C8.12003 0.870673 8.26243 0.842346 8.40625 0.842346C8.55006 0.842346 8.69247 0.870673 8.82534 0.925708C8.95821 0.980744 9.07893 1.06141 9.18062 1.1631C9.28232 1.2648 9.36298 1.38552 9.41802 1.51839C9.47305 1.65126 9.50138 1.79366 9.50138 1.93748C9.50138 2.08129 9.47305 2.2237 9.41802 2.35657C9.36298 2.48944 9.28232 2.61016 9.18062 2.71185L4.48406 7.40623H17.1562C17.4463 7.40623 17.7245 7.52146 17.9296 7.72658C18.1348 7.9317 18.25 8.2099 18.25 8.49998Z" fill="white"/>
</svg>
