<svg width="228" height="62" viewBox="0 0 228 62" fill="none" xmlns="http://www.w3.org/2000/svg">
<path d="M26.0687 3.1795H59.3776L34.8889 39.7005H1.57996L26.0687 3.1795Z" fill="#1E3936"/>
<path d="M27.5274 43.0852L18.0424 57.2307H52.9313L77.42 20.7097H51.6698L36.6661 43.0852H27.5274Z" fill="#618279"/>
<path d="M90.84 29.74C92.2933 28.4467 94.2867 27.8 96.82 27.8C98.9133 27.8 100.593 28.3 101.86 29.3C103.14 30.2867 103.927 31.7533 104.22 33.7L100.96 34.32L100.92 34.3C100.693 32.8867 100.32 31.9467 99.8 31.48C99.28 31 98.2867 30.76 96.82 30.76C95.0333 30.76 93.7867 31.0667 93.08 31.68C92.3867 32.2933 92.04 33.4 92.04 35C92.04 36.6133 92.3933 37.7267 93.1 38.34C93.8067 38.94 95.0467 39.24 96.82 39.24C98.2867 39.24 99.28 39 99.8 38.52C100.333 38.0267 100.707 37.08 100.92 35.68L100.96 35.66L104.22 36.28C103.927 38.24 103.14 39.72 101.86 40.72C100.593 41.7067 98.9133 42.2 96.82 42.2C94.3933 42.2 92.4267 41.5533 90.92 40.26C89.4133 38.9667 88.66 37.2267 88.66 35.04C88.66 32.8 89.3867 31.0333 90.84 29.74ZM105.567 42V28H108.907V42H105.567ZM118.491 28C120.051 28 121.278 28.3867 122.171 29.16C123.065 29.92 123.511 30.98 123.511 32.34C123.511 33.4467 123.225 34.3667 122.651 35.1C122.078 35.8333 121.291 36.2 120.291 36.2V36.28L124.071 42H120.811L117.431 36.72H114.111V42H110.851V28H118.491ZM118.071 34C118.831 34 119.365 33.8867 119.671 33.66C119.991 33.4333 120.151 33.0067 120.151 32.38C120.151 31.7667 119.991 31.3533 119.671 31.14C119.365 30.9133 118.831 30.8 118.071 30.8H114.111V34H118.071ZM125.931 29.74C127.385 28.4467 129.378 27.8 131.911 27.8C134.005 27.8 135.685 28.3 136.951 29.3C138.231 30.2867 139.018 31.7533 139.311 33.7L136.051 34.32L136.011 34.3C135.785 32.8867 135.411 31.9467 134.891 31.48C134.371 31 133.378 30.76 131.911 30.76C130.125 30.76 128.878 31.0667 128.171 31.68C127.478 32.2933 127.131 33.4 127.131 35C127.131 36.6133 127.485 37.7267 128.191 38.34C128.898 38.94 130.138 39.24 131.911 39.24C133.378 39.24 134.371 39 134.891 38.52C135.425 38.0267 135.798 37.08 136.011 35.68L136.051 35.66L139.311 36.28C139.018 38.24 138.231 39.72 136.951 40.72C135.685 41.7067 134.005 42.2 131.911 42.2C129.485 42.2 127.518 41.5533 126.011 40.26C124.505 38.9667 123.751 37.2267 123.751 35.04C123.751 32.8 124.478 31.0333 125.931 29.74ZM143.718 28V36.42C143.718 37.5267 144.012 38.2733 144.598 38.66C145.185 39.0467 146.178 39.24 147.578 39.24C148.992 39.24 149.985 39.0467 150.558 38.66C151.132 38.26 151.418 37.5133 151.418 36.42V28H154.658V36.16C154.658 38.12 154.045 39.62 152.818 40.66C151.592 41.6867 149.845 42.2 147.578 42.2C145.298 42.2 143.538 41.6867 142.298 40.66C141.072 39.62 140.458 38.12 140.458 36.16V28H143.718ZM156.392 42V28H159.732V42H156.392ZM160.876 28H173.656V30.88H170.916L168.896 30.84V42H165.636V30.84L163.556 30.88H160.876V28Z" fill="#1E3936"/>
<path d="M182.56 42V28H185.82V33.3H193.2V28H196.44V42H193.2V36.28H185.82V42H182.56ZM201.432 28V36.42C201.432 37.5267 201.725 38.2733 202.312 38.66C202.898 39.0467 203.892 39.24 205.292 39.24C206.705 39.24 207.698 39.0467 208.272 38.66C208.845 38.26 209.132 37.5133 209.132 36.42V28H212.372V36.16C212.372 38.12 211.758 39.62 210.532 40.66C209.305 41.6867 207.558 42.2 205.292 42.2C203.012 42.2 201.252 41.6867 200.012 40.66C198.785 39.62 198.172 38.12 198.172 36.16V28H201.432ZM214.105 42V28H221.905C223.305 28 224.392 28.32 225.165 28.96C225.939 29.5867 226.325 30.46 226.325 31.58C226.325 32.4333 226.039 33.1667 225.465 33.78C224.905 34.3933 224.145 34.76 223.185 34.88V34.92C224.305 34.9733 225.205 35.2933 225.885 35.88C226.579 36.4533 226.925 37.18 226.925 38.06C226.925 39.2867 226.539 40.2533 225.765 40.96C225.005 41.6533 223.979 42 222.685 42H214.105ZM221.845 39.14C222.965 39.14 223.525 38.64 223.525 37.64C223.525 37.2 223.365 36.86 223.045 36.62C222.739 36.38 222.305 36.26 221.745 36.26H217.305V39.14H221.845ZM217.305 33.64H221.585C222.052 33.64 222.412 33.5133 222.665 33.26C222.919 32.9933 223.045 32.6267 223.045 32.16C223.045 31.7333 222.899 31.4067 222.605 31.18C222.325 30.9533 221.939 30.84 221.445 30.84H217.305V33.64Z" fill="#618279"/>
</svg>
