<svg width="44" height="44" viewBox="0 0 44 44" fill="none" xmlns="http://www.w3.org/2000/svg">
<circle cx="22" cy="22" r="22" fill="white"/>
<g clip-path="url(#clip0_9_661)">
<path d="M32.374 26.8797L29.1643 23.67C28.018 22.5236 26.0692 22.9822 25.6107 24.4724C25.2668 25.5041 24.1205 26.0773 23.0888 25.848C20.7961 25.2748 17.701 22.2944 17.1279 19.8871C16.784 18.8553 17.4718 17.709 18.5035 17.3652C19.9937 16.9066 20.4522 14.9579 19.3059 13.8115L16.0962 10.6018C15.1791 9.79939 13.8035 9.79939 13.0011 10.6018L10.8231 12.7798C8.64503 15.0725 11.0523 21.148 16.4401 26.5358C21.8278 31.9235 27.9033 34.4455 30.196 32.1528L32.374 29.9748C33.1765 29.0577 33.1765 27.6821 32.374 26.8797Z" fill="#6AAFAC"/>
</g>
<defs>
<clipPath id="clip0_9_661">
<rect width="23" height="23" fill="white" transform="translate(10 10)"/>
</clipPath>
</defs>
</svg>
