<svg width="29" height="35" viewBox="0 0 29 35" fill="none" xmlns="http://www.w3.org/2000/svg">
<mask id="path-1-inside-1_5_26" fill="white">
<path fill-rule="evenodd" clip-rule="evenodd" d="M14.1931 0C9.00314 0 4.79581 4.20732 4.79581 9.39731C4.79581 13.6822 7.66359 17.2972 11.5845 18.4278C8.48915 18.805 5.83424 19.8998 3.83423 21.8709C1.28877 24.3796 0 28.1141 0 32.9875C0 33.6678 0.551318 34.2189 1.23137 34.2189C1.91145 34.2189 2.46274 33.6678 2.46274 32.9875C2.46274 28.5287 3.63667 25.5233 5.56292 23.625C7.4928 21.723 10.3739 20.7389 14.193 20.7389C18.0121 20.7389 20.8933 21.723 22.8233 23.625C24.7495 25.5233 25.9236 28.5287 25.9236 32.9875C25.9236 33.6678 26.4747 34.2189 27.1549 34.2189C27.8349 34.2192 28.3863 33.6678 28.3863 32.9878C28.3863 28.1141 27.0974 24.3796 24.5519 21.8709C22.5519 19.8999 19.897 18.8051 16.8017 18.4278C20.7225 17.2973 23.5904 13.6822 23.5904 9.39731C23.5904 4.20732 19.3831 0 14.1931 0ZM7.25856 9.39731C7.25856 5.56746 10.3633 2.46274 14.1931 2.46274C18.023 2.46274 21.1277 5.56746 21.1277 9.39731C21.1277 13.2272 18.023 16.3319 14.1931 16.3319C10.3633 16.3319 7.25856 13.2272 7.25856 9.39731Z"/>
</mask>
<path fill-rule="evenodd" clip-rule="evenodd" d="M14.1931 0C9.00314 0 4.79581 4.20732 4.79581 9.39731C4.79581 13.6822 7.66359 17.2972 11.5845 18.4278C8.48915 18.805 5.83424 19.8998 3.83423 21.8709C1.28877 24.3796 0 28.1141 0 32.9875C0 33.6678 0.551318 34.2189 1.23137 34.2189C1.91145 34.2189 2.46274 33.6678 2.46274 32.9875C2.46274 28.5287 3.63667 25.5233 5.56292 23.625C7.4928 21.723 10.3739 20.7389 14.193 20.7389C18.0121 20.7389 20.8933 21.723 22.8233 23.625C24.7495 25.5233 25.9236 28.5287 25.9236 32.9875C25.9236 33.6678 26.4747 34.2189 27.1549 34.2189C27.8349 34.2192 28.3863 33.6678 28.3863 32.9878C28.3863 28.1141 27.0974 24.3796 24.5519 21.8709C22.5519 19.8999 19.897 18.8051 16.8017 18.4278C20.7225 17.2973 23.5904 13.6822 23.5904 9.39731C23.5904 4.20732 19.3831 0 14.1931 0ZM7.25856 9.39731C7.25856 5.56746 10.3633 2.46274 14.1931 2.46274C18.023 2.46274 21.1277 5.56746 21.1277 9.39731C21.1277 13.2272 18.023 16.3319 14.1931 16.3319C10.3633 16.3319 7.25856 13.2272 7.25856 9.39731Z" fill="white"/>
<path d="M11.5845 18.4278L12.8148 28.5238L14.4024 8.65528L11.5845 18.4278ZM3.83423 21.8709L-3.30491 14.6269L-3.30505 14.627L3.83423 21.8709ZM5.56292 23.625L-1.57622 16.3809L-1.57627 16.381L5.56292 23.625ZM22.8233 23.625L29.9627 16.3812L29.9623 16.3808L22.8233 23.625ZM27.1549 34.2189L27.1588 24.0482H27.1549V34.2189ZM24.5519 21.8709L31.6913 14.627L31.691 14.6267L24.5519 21.8709ZM16.8017 18.4278L13.9837 8.65531L15.5713 28.5239L16.8017 18.4278ZM14.1931 -10.1707C3.38601 -10.1707 -5.37489 -1.4098 -5.37489 9.39731H14.9665C14.9665 9.82445 14.6203 10.1707 14.1931 10.1707V-10.1707ZM-5.37489 9.39731C-5.37489 18.3345 0.608119 25.8479 8.76657 28.2004L14.4024 8.65528C14.5839 8.70761 14.716 8.80851 14.8032 8.92273C14.9027 9.05306 14.9665 9.23224 14.9665 9.39731H-5.37489ZM10.3542 8.33179C5.60552 8.91045 0.665529 10.7139 -3.30491 14.6269L10.9734 29.1149C11.0211 29.0679 11.1217 28.9802 11.3644 28.8743C11.6262 28.7602 12.0854 28.6127 12.8148 28.5238L10.3542 8.33179ZM-3.30505 14.627C-8.40982 19.658 -10.1707 26.4059 -10.1707 32.9875H10.1707C10.1707 31.4227 10.3804 30.4301 10.5773 29.8591C10.7592 29.3319 10.9276 29.16 10.9735 29.1148L-3.30505 14.627ZM-10.1707 32.9875C-10.1707 39.2859 -5.06481 44.3896 1.23137 44.3896V24.0482C6.16745 24.0482 10.1707 28.0496 10.1707 32.9875H-10.1707ZM1.23137 44.3896C7.52773 44.3896 12.6335 39.2857 12.6335 32.9875H-7.70797C-7.70797 28.0498 -3.70483 24.0482 1.23137 24.0482V44.3896ZM12.6335 32.9875C12.6335 31.6262 12.8154 30.9227 12.9034 30.6681C12.9753 30.4599 12.9572 30.6175 12.7021 30.8689L-1.57627 16.381C-6.05701 20.7969 -7.70797 26.8111 -7.70797 32.9875H12.6335ZM12.7021 30.869C12.4507 31.1167 12.2739 31.1551 12.4108 31.1091C12.5893 31.0491 13.132 30.9096 14.193 30.9096V10.5681C8.72469 10.5681 2.87831 11.9909 -1.57622 16.3809L12.7021 30.869ZM14.193 30.9096C15.254 30.9096 15.7968 31.0491 15.9754 31.1091C16.1124 31.1552 15.9356 31.1168 15.6844 30.8692L29.9623 16.3808C25.5077 11.9909 19.6613 10.5681 14.193 10.5681V30.9096ZM15.684 30.8688C15.429 30.6175 15.4109 30.4599 15.4829 30.6682C15.5709 30.9229 15.7528 31.6264 15.7528 32.9875H36.0943C36.0943 26.8107 34.443 20.7968 29.9627 16.3812L15.684 30.8688ZM15.7528 32.9875C15.7528 39.2849 20.8576 44.3896 27.1549 44.3896V24.0482C32.0918 24.0482 36.0943 28.0506 36.0943 32.9875H15.7528ZM27.151 44.3896C33.4519 44.392 38.557 39.2842 38.557 32.9878H18.2156C18.2156 28.0514 22.2179 24.0463 27.1588 24.0482L27.151 44.3896ZM38.557 32.9878C38.557 26.4057 36.7958 19.658 31.6913 14.627L17.4126 29.1147C17.4586 29.16 17.6271 29.332 17.809 29.8592C18.0059 30.4302 18.2156 31.4229 18.2156 32.9878H38.557ZM31.691 14.6267C27.7205 10.7139 22.7805 8.91052 18.0321 8.33183L15.5713 28.5239C16.3007 28.6127 16.76 28.7602 17.0218 28.8744C17.2646 28.9803 17.3652 29.068 17.4129 29.115L31.691 14.6267ZM19.6196 28.2004C27.7778 25.8479 33.7611 18.3347 33.7611 9.39731H13.4197C13.4197 9.23214 13.4835 9.05296 13.583 8.92269C13.6702 8.80855 13.8022 8.70765 13.9837 8.65531L19.6196 28.2004ZM33.7611 9.39731C33.7611 -1.4098 25.0002 -10.1707 14.1931 -10.1707V10.1707C13.766 10.1707 13.4197 9.82445 13.4197 9.39731H33.7611ZM17.4293 9.39731C17.4293 11.1846 15.9804 12.6335 14.1931 12.6335V-7.70797C4.74615 -7.70797 -2.91215 -0.0496731 -2.91215 9.39731H17.4293ZM14.1931 12.6335C12.4058 12.6335 10.957 11.1846 10.957 9.39731H31.2984C31.2984 -0.0496719 23.6401 -7.70797 14.1931 -7.70797V12.6335ZM10.957 9.39731C10.957 7.61003 12.4058 6.16116 14.1931 6.16116V26.5026C23.6401 26.5026 31.2984 18.8443 31.2984 9.39731H10.957ZM14.1931 6.16116C15.9804 6.16116 17.4293 7.61003 17.4293 9.39731H-2.91215C-2.91215 18.8443 4.74615 26.5026 14.1931 26.5026V6.16116Z" fill="white" mask="url(#path-1-inside-1_5_26)"/>
</svg>
