<svg width="17" height="15" viewBox="0 0 17 15" fill="none" xmlns="http://www.w3.org/2000/svg">
<path fill-rule="evenodd" clip-rule="evenodd" d="M0 7.5C0 7.78411 0.111929 8.05658 0.311164 8.25748C0.5104 8.45837 0.78062 8.57124 1.06238 8.57124H13.3711L8.80927 13.169C8.71049 13.2686 8.63214 13.3868 8.57868 13.517C8.52522 13.6471 8.49771 13.7866 8.49771 13.9274C8.49771 14.0683 8.52522 14.2077 8.57868 14.3379C8.63214 14.468 8.71049 14.5862 8.80927 14.6858C8.90804 14.7854 9.02531 14.8645 9.15436 14.9184C9.28342 14.9723 9.42174 15 9.56143 15C9.70112 15 9.83945 14.9723 9.9685 14.9184C10.0976 14.8645 10.2148 14.7854 10.3136 14.6858L16.6879 8.25844C16.7868 8.15893 16.8653 8.04071 16.9189 7.91057C16.9724 7.78042 17 7.64091 17 7.5C17 7.3591 16.9724 7.21958 16.9189 7.08943C16.8653 6.95929 16.7868 6.84107 16.6879 6.74157L10.3136 0.314154C10.2148 0.214555 10.0976 0.135549 9.9685 0.081646C9.83945 0.0277434 9.70112 0 9.56143 0C9.42174 0 9.28342 0.0277434 9.15436 0.081646C9.02531 0.135549 8.90804 0.214555 8.80927 0.314154C8.71049 0.413753 8.63214 0.531994 8.57868 0.662127C8.52522 0.792259 8.49771 0.931735 8.49771 1.07259C8.49771 1.21344 8.52522 1.35292 8.57868 1.48305C8.63214 1.61318 8.71049 1.73142 8.80927 1.83102L13.3711 6.42877H1.06238C0.78062 6.42877 0.5104 6.54163 0.311164 6.74252C0.111929 6.94342 0 7.21589 0 7.5Z" fill="white"/>
</svg>
