<svg width="13" height="13" viewBox="0 0 13 13" fill="none" xmlns="http://www.w3.org/2000/svg">
<path d="M5.97109 9.28625C5.64088 9.28663 5.3243 9.41797 5.0908 9.65147C4.8573 9.88496 4.72596 10.2015 4.72559 10.5318C4.78404 12.1803 7.1584 12.1799 7.2166 10.5317C7.21622 10.2015 7.08488 9.88495 6.85138 9.65146C6.61788 9.41797 6.3013 9.28663 5.97109 9.28625ZM5.97109 11.1787C5.80079 11.1768 5.63811 11.1078 5.51835 10.9867C5.3986 10.8656 5.33144 10.7021 5.33144 10.5318C5.33144 10.3615 5.39861 10.198 5.51837 10.0769C5.63812 9.95584 5.80081 9.88685 5.97111 9.88494C6.14142 9.88685 6.3041 9.95585 6.42385 10.077C6.5436 10.1981 6.61077 10.3615 6.61076 10.5318C6.61076 10.7021 6.54359 10.8656 6.42384 10.9867C6.30408 11.1078 6.1414 11.1768 5.97109 11.1787Z" fill="#786D6D"/>
<path d="M9.22524 9.28625C8.89503 9.28663 8.57845 9.41797 8.34495 9.65147C8.11145 9.88497 7.98011 10.2015 7.97974 10.5318C8.03818 12.1804 10.4128 12.1798 10.4709 10.5317C10.4706 10.2015 10.3392 9.8849 10.1056 9.6514C9.87211 9.41791 9.55548 9.28659 9.22524 9.28625ZM9.22524 11.1787C9.05494 11.1768 8.89225 11.1078 8.7725 10.9867C8.65275 10.8656 8.58559 10.7021 8.58559 10.5318C8.58559 10.3615 8.65276 10.198 8.77252 10.0769C8.89227 9.95584 9.05496 9.88685 9.22526 9.88494C9.39556 9.88685 9.55825 9.95585 9.678 10.077C9.79775 10.1981 9.86491 10.3615 9.86491 10.5318C9.86491 10.7021 9.79774 10.8656 9.67798 10.9867C9.55823 11.1078 9.39554 11.1768 9.22524 11.1787Z" fill="#786D6D"/>
<path d="M11.9568 3.62092C11.8585 3.4974 11.7335 3.39772 11.5911 3.32933C11.4488 3.26094 11.2929 3.22561 11.135 3.22599H3.55055L3.3706 2.38341C3.23106 1.71622 2.51896 1.23193 1.67744 1.23193H1.11189C1.07251 1.23183 1.03351 1.2395 0.997098 1.2545C0.96069 1.26949 0.927598 1.29153 0.899719 1.31933C0.87184 1.34714 0.849721 1.38017 0.834628 1.41654C0.819536 1.45291 0.811768 1.4919 0.811768 1.53128C0.811768 1.57065 0.819536 1.60964 0.834628 1.64601C0.849721 1.68238 0.87184 1.71541 0.899719 1.74322C0.927598 1.77103 0.96069 1.79306 0.997098 1.80806C1.03351 1.82305 1.07251 1.83072 1.11189 1.83062H1.67744C2.22799 1.83062 2.7041 2.121 2.78497 2.50716C2.78556 2.50961 3.01585 3.58908 3.01649 3.5912L4.06712 8.25138C4.11861 8.48487 4.24855 8.69368 4.43528 8.84302C4.62201 8.99236 4.85427 9.07322 5.09338 9.07213H10.2915C10.5306 9.07322 10.7629 8.99237 10.9496 8.84305C11.1363 8.69373 11.2663 8.48495 11.3178 8.25147L12.1614 4.5095C12.1965 4.35555 12.1964 4.19565 12.1609 4.04177C12.1255 3.88789 12.0557 3.74402 11.9568 3.62092ZM11.5776 4.37785L10.7339 8.11982C10.7116 8.22043 10.6556 8.31038 10.5751 8.37471C10.4946 8.43905 10.3946 8.47389 10.2915 8.47344H5.09338C4.99033 8.47389 4.89023 8.43903 4.80975 8.37468C4.72926 8.31033 4.67324 8.22035 4.651 8.11973L3.68281 3.82467H11.135C11.2029 3.82516 11.2698 3.84078 11.3308 3.8704C11.3919 3.90002 11.4456 3.94289 11.488 3.99588C11.5304 4.04888 11.5604 4.11067 11.5759 4.17675C11.5914 4.24283 11.592 4.31153 11.5776 4.37785Z" fill="#786D6D"/>
</svg>
