<svg width="25" height="22" viewBox="0 0 25 22" fill="none" xmlns="http://www.w3.org/2000/svg">
<g id="&#240;&#159;&#166;&#134; icon &#34;twitter bold&#34;">
<path id="Vector" d="M7.88354 16.5553C4.82043 15.9723 2.82808 14.7317 1.9603 12.8688L3.83773 11.9948C4.40727 13.2199 5.89843 14.0659 8.2698 14.5215L7.88354 16.5553ZM8.85591 21.1157C8.53903 21.1157 8.22113 21.1044 7.9022 21.0816C4.7232 20.9573 1.91252 19.4796 0.0138158 17.2121L0 17.1952L1.65687 15.9526C3.21544 17.7709 5.48868 18.938 8.03607 19.0154L8.04921 19.0157C8.29851 19.0357 8.58897 19.0471 8.88207 19.0471C11.9181 19.0471 14.6682 17.8229 16.6655 15.8411L16.6648 15.8418L16.6742 15.8325C19.0826 13.4957 20.5774 10.2287 20.5774 6.61271C20.5774 6.14565 20.5524 5.68437 20.5038 5.23022L20.5088 5.28666L20.486 5.06604L21.1384 3.11203H19.0953L18.8084 2.87489C18.2086 2.37546 17.4302 2.07233 16.5808 2.07233C16.5212 2.07233 16.4618 2.07386 16.4029 2.07681L16.4112 2.07648H16.3615C16.338 2.07576 16.3105 2.07534 16.2828 2.07534C15.0645 2.07534 14.0351 2.8846 13.703 3.99492L13.6981 4.01397C13.4427 4.66554 13.2825 5.41935 13.2552 6.20694L13.2548 6.21861V7.22201L12.2514 7.25414C9.65638 7.33491 6.82937 6.2528 3.64614 3.95182C3.67099 4.20034 3.71139 4.48408 3.77248 4.80304C3.97752 5.91346 4.343 6.90445 4.84868 7.80619L4.82356 7.7574L3.04658 8.82192C2.39325 7.67408 1.91362 6.33586 1.68561 4.91359L1.6766 4.84548C1.38565 3.06643 1.56581 1.87454 2.21301 1.30085L2.86848 0.720959L3.54986 1.27081C6.50117 3.65258 9.03825 4.92835 11.276 5.15203C11.379 4.43835 11.5538 3.79595 11.7964 3.18801L11.7761 3.24559C12.4263 1.34622 14.1961 0.00505204 16.2792 0.00505204C16.2994 0.00505204 16.3195 0.00517575 16.3397 0.0054232H16.3366C16.4098 0.00195893 16.4956 0 16.5818 0C17.7973 0 18.9216 0.390184 19.8364 1.05213L19.8202 1.04095H24.012L22.5902 5.30423C22.625 5.6874 22.6449 6.13303 22.6449 6.58328C22.6449 10.7874 20.9135 14.5871 18.1249 17.3083L18.1218 17.3113C15.7555 19.6626 12.4945 21.1158 8.89395 21.1158C8.88059 21.1158 8.86721 21.1158 8.85386 21.1158H8.85593L8.85591 21.1157ZM4.35654 13.2654C2.49681 11.8783 1.2053 9.81868 0.841961 7.45308L0.835672 7.40326L2.88499 7.104C3.16682 8.95449 4.15448 10.533 5.55949 11.5844L5.57737 11.5972L4.35654 13.2654Z" fill="white"/>
</g>
</svg>
