<svg width="39" height="39" viewBox="0 0 39 39" fill="none" xmlns="http://www.w3.org/2000/svg">
<g clip-path="url(#clip0_3_348)">
<path d="M32.894 6.10586L29.5546 0L27.0559 9.44531L29.5546 18.8906L32.894 12.7848L38.9999 9.44531L32.894 6.10586Z" fill="#1E1E1E"/>
<path d="M26.2152 6.10586L20.1094 9.44531L26.2152 12.7848L29.5547 18.8906V0L26.2152 6.10586Z" fill="#1E1E1E"/>
<path d="M22.8421 13.8544H20.2725L19.063 16.2735V37.7905L20.2725 39H22.8421V13.8544Z" fill="#00D47E"/>
<path d="M17.7029 13.8544H20.2725V39H17.7029V13.8544Z" fill="#00D47E"/>
<path d="M7.70886 12.5696L5.42371 15.1392L7.70886 17.7088C9.12574 17.7088 10.2784 18.8615 10.2784 20.2784V25.9683H7.70886L5.42371 28.5379L7.70886 31.1074H10.2784V39H15.4177V20.2785C15.4177 16.0278 11.9596 12.5696 7.70886 12.5696Z" fill="#00D47E"/>
<path d="M5.13924 25.9683V20.2785C5.13924 18.8616 6.29195 17.7089 7.70882 17.7089V12.5696C3.4582 12.5696 0 16.0278 0 20.2785V39H5.13924V31.1075H7.70882V25.9683H5.13924Z" fill="#00D47E"/>
</g>
<defs>
<clipPath id="clip0_3_348">
<rect width="39" height="39" fill="white"/>
</clipPath>
</defs>
</svg>
