<svg width="25" height="35" viewBox="0 0 25 35" fill="none" xmlns="http://www.w3.org/2000/svg">
<path fill-rule="evenodd" clip-rule="evenodd" d="M24.6559 32.0632V0H2.37823C1.07075 0 0 1.07068 0 2.37823V29.687C0 30.9945 1.07075 32.0632 2.37823 32.0632H24.6559Z" fill="#00E499"/>
<path fill-rule="evenodd" clip-rule="evenodd" d="M2.37823 27.3088V0C1.07075 0 0 1.07068 0 2.37823V29.677C0.00602157 28.3735 1.07271 27.3088 2.37823 27.3088Z" fill="#00D47E"/>
<path fill-rule="evenodd" clip-rule="evenodd" d="M24.6559 32.0632V27.3088H2.37823C1.07075 27.3088 0 28.3795 0 29.687C0 30.9945 1.07075 32.0632 2.37823 32.0632H24.6559Z" fill="#ECEFF1"/>
<path fill-rule="evenodd" clip-rule="evenodd" d="M2.37823 27.3088V32.0632C1.07075 32.0632 0 30.9945 0 29.687C0 28.3795 1.07075 27.3088 2.37823 27.3088Z" fill="#D1D1D6"/>
<path fill-rule="evenodd" clip-rule="evenodd" d="M3.43304 29.687H7.6044V34.3862C7.6044 34.4667 7.56 34.5406 7.4889 34.5784C7.4178 34.6161 7.33168 34.6116 7.26494 34.5666L5.60828 33.4484L3.76699 34.6124C3.69995 34.6548 3.61514 34.6573 3.54564 34.6191C3.47621 34.5808 3.43304 34.5077 3.43304 34.4285V29.687Z" fill="#FFE177"/>
<path fill-rule="evenodd" clip-rule="evenodd" d="M4.20881 34.3331L3.76699 34.6124C3.69995 34.6548 3.61514 34.6573 3.54564 34.6191C3.47621 34.5808 3.43304 34.5077 3.43304 34.4285V29.687H4.20881V34.3331ZM7.6044 34.272V34.3862C7.6044 34.4667 7.56 34.5406 7.4889 34.5784C7.4178 34.6161 7.33168 34.6116 7.26494 34.5666L5.60828 33.4484L6.00882 33.1951L7.6044 34.272Z" fill="#FFD064"/>
<path fill-rule="evenodd" clip-rule="evenodd" d="M20.1685 5.85938C20.3688 5.85938 20.5312 6.02181 20.5312 6.22212V12.1546C20.5312 12.355 20.3688 12.5173 20.1685 12.5173H6.64107C6.44069 12.5173 6.27832 12.355 6.27832 12.1546V6.22212C6.27832 6.02181 6.44069 5.85938 6.64107 5.85938H20.1685Z" fill="#6CF5C2"/>
<path fill-rule="evenodd" clip-rule="evenodd" d="M7.7293 12.5173H6.64107C6.44069 12.5173 6.27832 12.355 6.27832 12.1546V6.22212C6.27832 6.02181 6.44069 5.85938 6.64107 5.85938H7.7293C7.52892 5.85938 7.36656 6.02181 7.36656 6.22212V12.1546C7.36656 12.355 7.52892 12.5173 7.7293 12.5173Z" fill="#00E499"/>
<path fill-rule="evenodd" clip-rule="evenodd" d="M6.27833 17.3876C5.95795 17.3876 5.69794 17.1275 5.69794 16.8072C5.69794 16.4869 5.95795 16.2268 6.27833 16.2268H16.7966C17.1169 16.2268 17.377 16.4869 17.377 16.8072C17.377 17.1275 17.1169 17.3876 16.7966 17.3876H6.27833ZM6.27833 19.9221C5.95795 19.9221 5.69794 19.662 5.69794 19.3417C5.69794 19.0214 5.95795 18.7613 6.27833 18.7613H20.5312C20.8515 18.7613 21.1116 19.0214 21.1116 19.3417C21.1116 19.662 20.8515 19.9221 20.5312 19.9221H6.27833ZM6.27833 22.4566C5.95795 22.4566 5.69794 22.1965 5.69794 21.8762C5.69794 21.5558 5.95795 21.2958 6.27833 21.2958H20.5312C20.8515 21.2958 21.1116 21.5558 21.1116 21.8762C21.1116 22.1965 20.8515 22.4566 20.5312 22.4566H6.27833Z" fill="#ECEFF1"/>
</svg>
