<svg width="23" height="23" viewBox="0 0 23 23" fill="none" xmlns="http://www.w3.org/2000/svg">
<g clip-path="url(#clip0_3_358)">
<path d="M11.5 23C17.8513 23 23 17.8513 23 11.5C23 5.14872 17.8513 0 11.5 0C5.14872 0 0 5.14872 0 11.5C0 17.8513 5.14872 23 11.5 23Z" fill="#00D47E"/>
<path fill-rule="evenodd" clip-rule="evenodd" d="M7.90908 17.1086L3.70316 12.6071C3.12735 11.9908 3.1604 11.0157 3.77669 10.4399C4.39298 9.8641 5.36804 9.89724 5.94385 10.5134L9.18812 13.9857L14.3234 9.18768C14.3695 9.14449 14.4178 9.10491 14.4677 9.06851L16.8826 6.81225C17.4989 6.23644 18.4741 6.26958 19.0498 6.88587C19.6256 7.50207 19.5924 8.47721 18.9762 9.05303L11.6005 15.9444L11.5926 15.936L9.04124 18.3199L7.90908 17.1086Z" fill="#1E1E1E"/>
</g>
<defs>
<clipPath id="clip0_3_358">
<rect width="23" height="23" fill="white"/>
</clipPath>
</defs>
</svg>
