<svg width="39" height="39" viewBox="0 0 39 39" fill="none" xmlns="http://www.w3.org/2000/svg">
<g clip-path="url(#clip0_3_334)">
<path d="M19.6523 30.8443C19.6525 28.7554 20.2616 26.7118 21.405 24.9636C22.5485 23.2155 24.1766 21.8385 26.0903 21.0011C28.0041 20.1637 30.1203 19.9023 32.1803 20.2488C34.2403 20.5953 36.1546 21.5347 37.689 22.9521C37.7398 19.2801 37.7093 15.6081 37.5976 11.9361C37.5367 9.4133 36.1123 6.88059 33.7258 5.62908C32.4994 4.98086 31.2289 4.35701 29.9439 3.76592C24.8663 5.40818 18.9195 7.57451 12.9217 10.2565C12.3451 10.5114 11.8511 10.9223 11.4954 11.4429C11.1397 11.9634 10.9364 12.573 10.9085 13.2029C10.8148 16.0974 10.7859 19.0848 10.824 22.0388C10.827 22.1254 10.8023 22.2108 10.7532 22.2823C10.7042 22.3538 10.6336 22.4077 10.5517 22.436C10.4698 22.4644 10.3809 22.4658 10.2982 22.4399C10.2154 22.4141 10.1432 22.3624 10.092 22.2924C9.4572 21.4799 8.83716 20.6766 8.23185 19.8824C8.18716 19.8203 8.12075 19.7773 8.04582 19.7619C7.97088 19.7465 7.89291 19.7599 7.82737 19.7993C7.35663 20.0796 6.89427 20.3562 6.44028 20.6288C6.18587 20.7812 5.8728 20.5778 5.87128 20.2647C5.85605 17.3222 5.92917 14.3721 6.08685 11.5126C6.15312 10.3068 6.9095 9.17108 8.02847 8.61807C13.781 5.77686 19.9181 3.4559 25.1549 1.73822C23.9362 1.26139 22.7243 0.824162 21.5414 0.409787C19.9463 -0.137898 18.2142 -0.137898 16.6191 0.409787C12.6719 1.77174 8.36134 3.54959 4.43392 5.62908C2.04821 6.88059 0.625322 9.4133 0.5621 11.9361C0.406709 16.9787 0.406709 22.0213 0.5621 27.0638C0.623037 29.5867 2.04821 32.1194 4.43392 33.3709C8.36134 35.4504 12.6719 37.2282 16.6214 38.5894C18.2165 39.1371 19.9486 39.1371 21.5436 38.5894C21.8884 38.4706 22.2366 38.3479 22.588 38.2215C20.6968 36.2317 19.6453 33.5894 19.6523 30.8443Z" fill="#00D47E"/>
<path d="M30.3979 22.6893C28.7848 22.6895 27.2081 23.168 25.8669 24.0642C24.5258 24.9605 23.4806 26.2344 22.8634 27.7247C22.2463 29.215 22.0849 30.8549 22.3998 32.4369C22.7146 34.0189 23.4915 35.4721 24.6322 36.6126C25.7729 37.7531 27.2262 38.5297 28.8083 38.8442C30.3904 39.1588 32.0302 38.9971 33.5204 38.3797C35.0106 37.7622 36.2843 36.7168 37.1803 35.3755C38.0763 34.0342 38.5545 32.4573 38.5544 30.8443C38.5543 29.7733 38.3432 28.7128 37.9333 27.7233C37.5233 26.7338 36.9225 25.8348 36.1651 25.0775C35.4077 24.3203 34.5085 23.7196 33.519 23.3099C32.5295 22.9001 31.4689 22.6892 30.3979 22.6893ZM35.0497 29.4945L30.1473 34.6422C30.0139 34.7826 29.8535 34.8944 29.6757 34.9712C29.4979 35.0479 29.3065 35.0878 29.1129 35.0886H29.106C28.9135 35.0885 28.723 35.0498 28.5458 34.9748C28.3685 34.8999 28.208 34.7901 28.0739 34.6521L25.4726 31.9724C25.207 31.6987 25.0609 31.3306 25.0666 30.9492C25.0723 30.5678 25.2293 30.2043 25.5031 29.9386C25.7768 29.673 26.1449 29.5269 26.5263 29.5326C26.9077 29.5383 27.2712 29.6953 27.5369 29.9691L29.0976 31.5755L32.9679 27.511C33.234 27.2503 33.591 27.103 33.9636 27.1001C34.3361 27.0973 34.6952 27.2392 34.9653 27.4959C35.2353 27.7526 35.3952 28.1041 35.4112 28.4763C35.4272 28.8486 35.2982 29.2125 35.0512 29.4915L35.0497 29.4945Z" fill="black"/>
</g>
<defs>
<clipPath id="clip0_3_334">
<rect width="39" height="39" fill="white"/>
</clipPath>
</defs>
</svg>
