<svg width="12" height="12" viewBox="0 0 12 12" fill="none" xmlns="http://www.w3.org/2000/svg">
<g clip-path="url(#clip0_3_463)">
<path d="M2.62529 9.40758C2.43772 9.22001 2.18835 9.11672 1.92313 9.11672C1.76645 9.11672 1.61541 9.15305 1.47927 9.2212C0.14138 7.32572 0.13674 4.72825 1.49059 2.82817C1.56568 2.72275 1.54112 2.5764 1.4357 2.50128C1.33027 2.42617 1.18393 2.45073 1.10881 2.55615C0.362021 3.60425 -0.0210888 4.84195 0.000895648 6.13539C0.0218254 7.36631 0.40831 8.53397 1.12037 9.52521C0.837429 9.91334 0.870921 10.4618 1.22096 10.8119C1.41455 11.0055 1.66883 11.1023 1.92313 11.1023C2.17742 11.1023 2.4317 11.0055 2.62529 10.8119C3.01246 10.4247 3.01246 9.79477 2.62529 9.40758ZM2.29381 10.4804C2.08937 10.6848 1.75681 10.6848 1.55241 10.4804C1.34799 10.276 1.34799 9.94341 1.55241 9.73901C1.65144 9.63999 1.78309 9.58545 1.9231 9.58545C2.06312 9.58545 2.19479 9.63999 2.29379 9.73901C2.49824 9.94343 2.49824 10.276 2.29381 10.4804Z" fill="black"/>
<path d="M9.56162 10.5738C9.48589 10.4689 9.33941 10.4453 9.23443 10.5211C8.5644 11.0052 7.81119 11.326 6.9957 11.4744C6.80675 11.5088 6.61405 11.4582 6.46702 11.3355C6.32105 11.2137 6.23736 11.0348 6.23736 10.8446V9.1267H6.25782C6.5292 9.1267 6.75001 8.90592 6.75001 8.63451V8.23882C7.54391 7.93577 8.10938 7.16641 8.10938 6.26734V5.15769C8.4871 5.05452 8.76564 4.70856 8.76564 4.29859C8.76564 3.84725 8.42806 3.47349 7.9922 3.41591V1.95484C7.9922 1.56713 7.67677 1.25171 7.28907 1.25171C6.90137 1.25171 6.58594 1.56713 6.58594 1.95484V3.40796H5.41407V1.95484C5.41407 1.56713 5.09864 1.25171 4.71094 1.25171C4.32324 1.25171 4.00781 1.56713 4.00781 1.95484V3.41591C3.57195 3.47349 3.23438 3.84723 3.23438 4.29859C3.23438 4.70856 3.51291 5.05452 3.89063 5.15769V6.26734C3.89063 7.16641 4.4561 7.93577 5.25 8.23882V8.63454C5.25 8.90594 5.47081 9.12672 5.74219 9.12672H5.76861V10.8446C5.76861 11.1742 5.91371 11.4843 6.16669 11.6954C6.36861 11.8639 6.62023 11.9538 6.8787 11.9538C6.94548 11.9538 7.01269 11.9478 7.07963 11.9356C7.96445 11.7745 8.78178 11.4264 9.50891 10.901C9.61384 10.8252 9.63742 10.6787 9.56162 10.5738ZM7.05472 1.95484C7.05472 1.8256 7.15986 1.72046 7.28909 1.72046C7.41833 1.72046 7.52347 1.8256 7.52347 1.95484V3.40796H7.05472V1.95484ZM4.47659 1.95484C4.47659 1.8256 4.58173 1.72046 4.71096 1.72046C4.8402 1.72046 4.94534 1.8256 4.94534 1.95484V3.40796H4.47659V1.95484ZM3.70315 4.29859C3.70315 4.06597 3.89241 3.87671 4.12503 3.87671H7.87503C8.10765 3.87671 8.29691 4.06597 8.29691 4.29859C8.29691 4.53121 8.10765 4.72047 7.87503 4.72047H4.12503C3.89241 4.72047 3.70315 4.53121 3.70315 4.29859ZM4.3594 6.26734V5.18922H7.64066V6.26734C7.64066 7.17199 6.90467 7.90797 6.00003 7.90797C5.09539 7.90797 4.3594 7.17199 4.3594 6.26734ZM6.00891 8.65797C6.00694 8.65793 6.005 8.65767 6.00303 8.65767C6.00106 8.65767 5.99911 8.65793 5.99715 8.65797H5.74226C5.72928 8.65797 5.71878 8.64745 5.71878 8.63454V8.35793C5.81082 8.37025 5.90469 8.37672 6.00003 8.37672C6.09537 8.37672 6.18924 8.37025 6.28128 8.35793V8.63454C6.28128 8.64745 6.27078 8.65797 6.25784 8.65797H6.00891Z" fill="black"/>
<path d="M10.2368 9.93852C10.144 9.8518 9.99923 9.85515 9.9104 9.94494C9.9086 9.94677 9.90679 9.94864 9.90508 9.95045C9.81675 10.0451 9.82188 10.1934 9.9165 10.2817C9.96168 10.3239 10.0191 10.3447 10.0764 10.3447C10.1369 10.3447 10.1973 10.3214 10.2429 10.2753C10.2447 10.2735 10.2465 10.2716 10.2483 10.2698C10.3366 10.1751 10.3315 10.0269 10.2368 9.93852Z" fill="black"/>
<path d="M11.9841 5.5949C11.8797 4.1601 11.2612 2.80898 10.2428 1.79045C9.24169 0.789316 7.90444 0.176518 6.47735 0.0649788C5.06766 -0.045248 3.66466 0.3373 2.52635 1.14205C2.42064 1.21677 2.39554 1.36304 2.47026 1.46872C2.54496 1.5744 2.69125 1.59955 2.79693 1.52481C4.97365 -0.0140291 8.03215 0.242635 9.9113 2.1219C11.8533 4.06396 12.0881 7.07979 10.4696 9.29286C10.3932 9.39734 10.416 9.54397 10.5204 9.6204C10.5622 9.65091 10.6106 9.66561 10.6586 9.66561C10.7308 9.66561 10.8021 9.63235 10.848 9.56956C11.684 8.42642 12.0875 7.01487 11.9841 5.5949Z" fill="black"/>
<path d="M2.06043 1.81743C1.96849 1.72633 1.82008 1.72693 1.72895 1.8189L1.72513 1.82279C1.63401 1.91472 1.63469 2.06312 1.72661 2.15425C1.77231 2.19953 1.83196 2.22215 1.89161 2.22215C1.95192 2.22215 2.01224 2.19899 2.05809 2.15277L2.06191 2.14888C2.15303 2.05696 2.15235 1.90855 2.06043 1.81743Z" fill="black"/>
<path d="M6.52854 6.18055C6.48654 6.1085 6.40943 6.06421 6.32604 6.06421H6.15855L6.46704 5.67453C6.54738 5.57305 6.53023 5.42563 6.42874 5.34531C6.32726 5.26494 6.17984 5.28212 6.09949 5.38358L5.4903 6.1531C5.43452 6.22358 5.42395 6.31975 5.46309 6.40065C5.50223 6.48156 5.58419 6.53296 5.67408 6.53296H5.92392L5.63691 7.03972C5.57311 7.15236 5.61272 7.29538 5.72531 7.35915C5.76183 7.37983 5.80146 7.38965 5.84062 7.38965C5.92235 7.38962 6.00169 7.34685 6.04481 7.27072L6.52999 6.41408C6.5711 6.34152 6.57054 6.2526 6.52854 6.18055Z" fill="black"/>
</g>
<defs>
<clipPath id="clip0_3_463">
<rect width="12" height="12" fill="white"/>
</clipPath>
</defs>
</svg>
