<svg width="27" height="27" viewBox="0 0 27 27" fill="none" xmlns="http://www.w3.org/2000/svg">
<circle cx="13.5" cy="13.5" r="13.5" fill="#3E3E3E"/>
<path d="M11.9301 14.2267C11.8798 14.2267 10.8259 14.227 10.3398 14.2265C10.0896 14.2263 10.0003 14.1364 10.0003 13.8846C9.99998 13.2377 9.99982 12.5908 10.0003 11.9439C10.0005 11.6953 10.0949 11.6004 10.3419 11.6003C10.828 11.5999 11.8761 11.6001 11.9301 11.6001C11.9301 11.5558 11.9299 10.6219 11.9301 10.1918C11.9304 9.55594 12.0438 8.9473 12.3669 8.39002C12.6976 7.81962 13.1789 7.4289 13.7957 7.20298C14.1907 7.05818 14.6008 7.00042 15.02 7.0001C15.5445 6.99978 16.0689 7.00026 16.5936 7.00122C16.819 7.00154 16.919 7.10122 16.9195 7.32826C16.9205 7.93674 16.9205 8.54522 16.9195 9.15354C16.9192 9.38298 16.8233 9.47514 16.5928 9.4777C16.1629 9.48234 15.7326 9.47946 15.3032 9.49674C14.8694 9.49674 14.6413 9.70858 14.6413 10.1575C14.6309 10.6324 14.6369 11.1078 14.6369 11.5999C14.6776 11.5999 15.912 11.5998 16.4889 11.5999C16.751 11.5999 16.8406 11.69 16.8406 11.9535C16.8406 12.5969 16.8405 13.2404 16.84 13.8838C16.8398 14.1435 16.7557 14.2263 16.492 14.2265C15.915 14.2268 14.6854 14.2267 14.6317 14.2267V19.4339C14.6317 19.7115 14.5443 19.7999 14.2704 19.7999C13.6025 19.7999 12.9345 19.8001 12.2667 19.7999C12.0246 19.7999 11.9302 19.7059 11.9302 19.4638C11.9301 17.7679 11.9301 14.2862 11.9301 14.2267Z" fill="#F7F8F8"/>
</svg>
