<svg width="37" height="37" viewBox="0 0 37 37" fill="none" xmlns="http://www.w3.org/2000/svg">
<path fill-rule="evenodd" clip-rule="evenodd" d="M20.8463 0.545665C19.3685 -0.181888 17.6315 -0.181889 16.1537 0.545665L1.43441 7.79264C-0.478129 8.73425 -0.478141 11.4475 1.43441 12.3891L16.1537 19.636C17.6315 20.3637 19.3685 20.3637 20.8463 19.6362L35.5656 12.3891C37.4781 11.4475 37.4781 8.73427 35.5656 7.79264L20.8463 0.545665ZM1.51885 16.16C1.75306 16.0447 2.02753 16.0447 2.26173 16.16L16.1537 22.9997C17.6315 23.7272 19.3685 23.7272 20.8463 22.9997L34.7383 16.16C34.9724 16.0447 35.2469 16.0447 35.4812 16.16L35.5656 16.2016C37.4781 17.1432 37.4781 19.8565 35.5656 20.7982L20.8463 28.0451C19.3685 28.7726 17.6315 28.7726 16.1537 28.0451L1.43441 20.7982C-0.478141 19.8565 -0.478129 17.1432 1.43441 16.2016L1.51885 16.16ZM2.26173 24.5693C2.02753 24.4539 1.75306 24.4539 1.51885 24.5693L1.43441 24.6108C-0.478129 25.5525 -0.478141 28.2658 1.43441 29.2074L16.1537 36.4543C17.6315 37.1819 19.3685 37.1819 20.8463 36.4543L35.5656 29.2074C37.4781 28.2658 37.4781 25.5525 35.5656 24.6108L35.4812 24.5693C35.2469 24.4539 34.9724 24.4539 34.7383 24.5693L20.8463 31.4089C19.3685 32.1364 17.6315 32.1364 16.1537 31.4089L2.26173 24.5693Z" fill="#00D47E"/>
</svg>
