<svg width="39" height="39" viewBox="0 0 39 39" fill="none" xmlns="http://www.w3.org/2000/svg">
<g clip-path="url(#clip0_3_337)">
<path d="M38.351 24.5904C38.1433 23.1912 37.1659 22.0961 35.8027 21.733C34.5889 21.4068 33.2958 21.5334 32.1593 22.0893L28.925 23.5761C28.3431 21.6555 26.5588 20.271 24.4684 20.271H20.2418C15.6013 17.728 10.9904 18.6871 6.51983 23.1215C6.16426 22.8766 5.74295 22.7443 5.3007 22.7443C4.72468 22.7443 4.18394 22.9679 3.77787 23.3741L1.24096 25.9129C0.834511 26.3172 0.610261 26.857 0.609499 27.4329C0.608662 28.0098 0.83215 28.5515 1.23876 28.9581L10.0421 37.7612C10.4479 38.1672 10.9883 38.3907 11.5636 38.3907C12.139 38.3907 12.6793 38.1671 13.0852 37.7612L15.6245 35.2221C16.0303 34.8162 16.2539 34.2755 16.2539 33.6995C16.2539 33.5134 16.2302 33.3311 16.185 33.1557H20.4824C22.2502 33.1557 23.6577 32.9703 25.1898 32.5354L30.1272 31.1278C31.9015 30.6232 33.3092 29.9472 34.8779 29.0869L36.6792 28.0967C37.9072 27.4243 38.5636 26.0492 38.3511 24.5905L38.351 24.5904ZM11.5635 36.051L2.94881 27.4366L5.3007 25.0829L5.74775 25.53C5.76077 25.5432 5.77296 25.557 5.78675 25.5696C5.78789 25.5707 5.78911 25.5715 5.79025 25.5725L13.9154 33.6994L11.5635 36.051ZM35.5799 26.0932L33.7779 27.0837C32.3457 27.8692 31.0706 28.4837 29.5013 28.93L24.5644 30.3374C23.248 30.7111 22.0271 30.8705 20.4823 30.8705H15.786C15.3548 30.8705 14.9354 30.9738 14.5626 31.1148L8.15996 24.7108C11.9708 20.9289 15.554 20.1992 19.3712 22.4032L19.6362 22.5563H24.4683C25.7256 22.5563 26.7656 23.5393 26.836 24.7894C26.8364 24.7966 26.8362 24.8018 26.836 24.8052C26.8338 24.8079 26.8301 24.8123 26.8241 24.8187C26.8219 24.821 26.8199 24.823 26.8184 24.8244C26.8154 24.8247 26.8116 24.8248 26.8067 24.8248H21.0718C20.4408 24.8248 19.9292 25.3364 19.9292 25.9674C19.9292 26.5984 20.4408 27.11 21.0718 27.11H26.8067C27.4523 27.11 28.0504 26.8515 28.4873 26.3856C28.5348 26.3354 28.5791 26.2836 28.6214 26.2308L33.1267 24.1597L33.1548 24.1464C33.7969 23.8297 34.5264 23.7564 35.2122 23.9406C35.6965 24.0697 36.0167 24.4288 36.0901 24.923C36.1482 25.3218 36.045 25.8385 35.5799 26.0932L35.5799 26.0932ZM17.0364 10.7303L16.4256 14.9696C16.3651 15.3892 16.542 15.8078 16.885 16.0569C17.228 16.3061 17.6807 16.3449 18.0611 16.1575L21.9031 14.2661L25.7473 16.1576C25.9072 16.2363 26.0797 16.275 26.2515 16.275C26.4887 16.275 26.7246 16.2012 26.9235 16.0566C27.2665 15.8073 27.4431 15.3886 27.3825 14.9689L26.7698 10.7302L29.7568 7.65934C30.0524 7.35549 30.1553 6.91293 30.0245 6.50968C29.8935 6.1065 29.55 5.80897 29.1323 5.73684L24.9121 5.00765L22.9136 1.21878C22.7158 0.843862 22.3269 0.609253 21.903 0.609253H21.9027C21.4788 0.609253 21.0898 0.844091 20.8921 1.21916L18.8958 5.00765L14.6758 5.73676C14.2581 5.8089 13.9147 6.10635 13.7837 6.50953C13.6526 6.91263 13.7555 7.35519 14.051 7.65904L17.0363 10.7301L17.0364 10.7303ZM19.8391 7.16384C20.1885 7.10344 20.4901 6.88429 20.6554 6.57054L21.9037 4.20182L23.1533 6.57092C23.3186 6.88444 23.6201 7.10344 23.9694 7.16377L26.6078 7.61958L24.7397 9.54018C24.4924 9.79444 24.3772 10.1492 24.4279 10.5002L24.8108 13.15L22.4075 11.9675C22.0894 11.8109 21.7167 11.8109 21.3985 11.9675L18.9966 13.15L19.3785 10.4998C19.4291 10.149 19.3139 9.79459 19.0669 9.54048L17.1998 7.61981L19.8391 7.16384Z" fill="#00D47E"/>
<path d="M35.2122 23.9406C34.5265 23.7564 33.797 23.8297 33.1548 24.1464L33.1268 24.1597L28.6215 26.2308C28.5792 26.2837 28.5349 26.3355 28.4874 26.3856C28.0505 26.8514 27.4523 27.11 26.8068 27.11H21.0719C20.4408 27.11 19.9293 26.5984 19.9293 25.9674C19.9293 25.3364 20.4408 24.8248 21.0719 24.8248H26.8068C26.8116 24.8248 26.8155 24.8247 26.8185 24.8244C26.8201 24.8229 26.822 24.821 26.8242 24.8186C26.8302 24.8122 26.8339 24.8079 26.8361 24.8052C26.8362 24.8018 26.8364 24.7966 26.8361 24.7894C26.7657 23.5393 25.7257 22.5563 24.4684 22.5563H19.6363L19.3712 22.4032C15.5541 20.1992 11.971 20.9289 8.16003 24.7108L14.5627 31.1148C14.9354 30.9738 15.3548 30.8705 15.7861 30.8705H20.4824C22.0272 30.8705 23.2481 30.7111 24.5645 30.3374L29.5013 28.9299C31.0706 28.4837 32.3458 27.8691 33.778 27.0837L35.58 26.0932C36.0452 25.8384 36.1483 25.3218 36.0902 24.9229C36.0168 24.4287 35.6967 24.0696 35.2123 23.9405L35.2122 23.9406Z" fill="#E8F3FF"/>
<path d="M5.78679 25.5696C5.773 25.5568 5.76081 25.5431 5.74779 25.53L5.30074 25.0828L2.94885 27.4365L11.5636 36.051L13.9154 33.6993L5.79029 25.5725C5.78915 25.5714 5.78793 25.5706 5.78679 25.5696Z" fill="white"/>
<path d="M23.1531 6.57094L21.9035 4.20184L20.6553 6.57056C20.49 6.88431 20.1884 7.10346 19.839 7.16386L17.1997 7.61983L19.0668 9.5405C19.3138 9.79461 19.429 10.149 19.3784 10.4998L18.9965 13.15L21.3984 11.9676C21.7166 11.8109 22.0893 11.811 22.4074 11.9675L24.8107 13.15L24.4278 10.5003C24.3771 10.1492 24.4922 9.79446 24.7396 9.5402L26.6077 7.6196L23.9693 7.16379C23.62 7.10346 23.3185 6.88446 23.1531 6.57094Z" fill="white"/>
</g>
<defs>
<clipPath id="clip0_3_337">
<rect width="39" height="39" fill="white"/>
</clipPath>
</defs>
</svg>
