<svg width="27" height="27" viewBox="0 0 27 27" fill="none" xmlns="http://www.w3.org/2000/svg">
<circle cx="13.5" cy="13.5" r="13.5" fill="#3E3E3E"/>
<g clip-path="url(#clip0_3_444)">
<path d="M22 9.039C21.405 9.3 20.771 9.473 20.11 9.557C20.79 9.151 21.309 8.513 21.553 7.744C20.919 8.122 20.219 8.389 19.473 8.538C18.871 7.897 18.013 7.5 17.077 7.5C15.261 7.5 13.799 8.974 13.799 10.781C13.799 11.041 13.821 11.291 13.875 11.529C11.148 11.396 8.735 10.089 7.114 8.098C6.831 8.589 6.665 9.151 6.665 9.756C6.665 10.892 7.25 11.899 8.122 12.482C7.595 12.472 7.078 12.319 6.64 12.078C6.64 12.088 6.64 12.101 6.64 12.114C6.64 13.708 7.777 15.032 9.268 15.337C9.001 15.41 8.71 15.445 8.408 15.445C8.198 15.445 7.986 15.433 7.787 15.389C8.212 16.688 9.418 17.643 10.852 17.674C9.736 18.547 8.319 19.073 6.785 19.073C6.516 19.073 6.258 19.061 6 19.028C7.453 19.965 9.175 20.5 11.032 20.5C17.068 20.5 20.368 15.5 20.368 11.166C20.368 11.021 20.363 10.881 20.356 10.742C21.007 10.28 21.554 9.703 22 9.039Z" fill="#F7F8F8"/>
</g>
<defs>
<clipPath id="clip0_3_444">
<rect width="16" height="16" fill="white" transform="translate(6 6)"/>
</clipPath>
</defs>
</svg>
