<svg width="12" height="12" viewBox="0 0 12 12" fill="none" xmlns="http://www.w3.org/2000/svg">
<path d="M9.65217 1.56519C8.35748 1.56519 7.30435 2.61858 7.30435 3.91301C7.30435 4.05701 7.42096 4.17388 7.56522 4.17388C7.70948 4.17388 7.82609 4.05701 7.82609 3.91301C7.82609 2.90606 8.64548 2.08692 9.65217 2.08692C10.6589 2.08692 11.4783 2.90606 11.4783 3.91301C11.4783 4.91997 10.6589 5.7391 9.65217 5.7391H0.26087C0.11687 5.7391 0 5.85597 0 5.99997C0 6.14397 0.11687 6.26084 0.26087 6.26084H9.65217C10.9469 6.26084 12 5.20745 12 3.91301C12 2.61858 10.9469 1.56519 9.65217 1.56519Z" fill="#8D959E"/>
<path d="M4.69565 1.04346C3.6887 1.04346 2.86957 1.86259 2.86957 2.86954C2.86957 3.01354 2.98643 3.13041 3.13043 3.13041C3.27443 3.13041 3.3913 3.01354 3.3913 2.86954C3.3913 2.15033 3.97643 1.5652 4.69565 1.5652C5.41487 1.5652 6 2.15033 6 2.86954C6 3.58876 5.41487 4.17389 4.69565 4.17389H0.26087C0.11687 4.17389 0 4.29076 0 4.43476C0 4.57876 0.11687 4.69563 0.26087 4.69563H4.69565C5.70261 4.69563 6.52174 3.8765 6.52174 2.86954C6.52174 1.86259 5.70261 1.04346 4.69565 1.04346Z" fill="#8D959E"/>
<path d="M9.13043 7.30444H0.26087C0.11687 7.30444 0 7.42131 0 7.56531C0 7.70931 0.11687 7.82618 0.26087 7.82618H9.13043C9.84965 7.82618 10.4348 8.41131 10.4348 9.13053C10.4348 9.84975 9.84965 10.4349 9.13043 10.4349C8.41122 10.4349 7.82609 9.84975 7.82609 9.13053C7.82609 8.98653 7.70948 8.86966 7.56522 8.86966C7.42096 8.86966 7.30435 8.98653 7.30435 9.13053C7.30435 10.1375 8.12374 10.9566 9.13043 10.9566C10.1371 10.9566 10.9565 10.1375 10.9565 9.13053C10.9565 8.12357 10.1371 7.30444 9.13043 7.30444Z" fill="#8D959E"/>
</svg>
