<svg width="27" height="27" viewBox="0 0 27 27" fill="none" xmlns="http://www.w3.org/2000/svg">
<circle cx="13.5" cy="13.5" r="13.5" fill="#3E3E3E"/>
<path d="M17.3001 8.90039H9.69993C8.2088 8.90039 7 10.1092 7 11.6003V15.3996C7 16.8907 8.2088 18.0995 9.69993 18.0995H17.3001C18.7912 18.0995 20 16.8907 20 15.3996V11.6003C20 10.1092 18.7912 8.90039 17.3001 8.90039ZM15.4741 13.6848L11.9193 15.3802C11.8246 15.4254 11.7152 15.3564 11.7152 15.2514V11.7546C11.7152 11.6482 11.8274 11.5792 11.9224 11.6273L15.4772 13.4287C15.5829 13.4822 15.5811 13.6338 15.4741 13.6848Z" fill="#F7F8F8"/>
</svg>
