<svg width="37" height="38" viewBox="0 0 37 38" fill="none" xmlns="http://www.w3.org/2000/svg">
<path d="M10.0208 10.2918V10.276M3.08325 26.9168L3.08325 11.0835C3.08325 6.71124 6.53439 3.16683 10.7916 3.16683H26.2083C30.4654 3.16683 33.9166 6.71124 33.9166 11.0835V26.9168C33.9166 31.2891 30.4654 34.8335 26.2083 34.8335H10.7916C6.53439 34.8335 3.08325 31.2891 3.08325 26.9168ZM17.5287 12.6668C18.8117 12.4714 20.1221 12.6965 21.2734 13.31C22.4247 13.9236 23.3583 14.8943 23.9415 16.0843C24.5247 17.2742 24.7276 18.6226 24.5216 19.9378C24.3155 21.253 23.7109 22.468 22.7937 23.41C21.8765 24.352 20.6935 24.9729 19.4129 25.1846C18.1323 25.3962 16.8193 25.1877 15.6607 24.5888C14.5022 23.9899 13.5569 23.031 12.9595 21.8486C12.3621 20.6662 12.143 19.3204 12.3333 18.0027C12.5273 16.6585 13.1372 15.4142 14.0727 14.4533C15.0083 13.4925 16.2199 12.8661 17.5287 12.6668Z" stroke="white" stroke-width="4" stroke-linecap="round" stroke-linejoin="round"/>
</svg>
