<svg width="38" height="38" viewBox="0 0 38 38" fill="none" xmlns="http://www.w3.org/2000/svg">
<g clip-path="url(#clip0_13_178)">
<path d="M36.4168 4.74981C34.9006 5.81931 33.2218 6.63732 31.4452 7.17231C30.4916 6.07587 29.2243 5.29874 27.8146 4.94602C26.405 4.59331 24.921 4.68203 23.5635 5.20019C22.2059 5.71835 21.0402 6.64094 20.2241 7.84319C19.4079 9.04544 18.9807 10.4693 19.0002 11.9223V13.5056C16.2177 13.5778 13.4605 12.9607 10.9743 11.7093C8.48801 10.4579 6.34983 8.61098 4.75016 6.33314C4.75016 6.33314 -1.58317 20.5831 12.6668 26.9165C9.406 29.1299 5.52149 30.2398 1.5835 30.0831C15.8335 37.9998 33.2502 30.0831 33.2502 11.8748C33.2487 11.4338 33.2063 10.9938 33.1235 10.5606C34.7395 8.96701 35.8798 6.95494 36.4168 4.74981Z" stroke="white" stroke-width="4" stroke-linecap="round" stroke-linejoin="round"/>
</g>
<defs>
<clipPath id="clip0_13_178">
<rect width="38" height="38" fill="white"/>
</clipPath>
</defs>
</svg>
