<svg width="38" height="38" viewBox="0 0 38 38" fill="none" xmlns="http://www.w3.org/2000/svg">
<g clip-path="url(#clip0_13_180)">
<path d="M35.6884 10.1652C35.5003 9.41373 35.1173 8.72523 34.578 8.16922C34.0386 7.61321 33.3621 7.20937 32.6168 6.9985C29.8934 6.3335 19.0001 6.3335 19.0001 6.3335C19.0001 6.3335 8.10676 6.3335 5.38342 7.06183C4.63807 7.27271 3.96156 7.67654 3.42222 8.23256C2.88289 8.78857 2.49984 9.47706 2.31176 10.2285C1.81335 12.9923 1.56955 15.796 1.58342 18.6043C1.56566 21.4338 1.80947 24.2589 2.31176 27.0435C2.51911 27.7716 2.91074 28.4339 3.44882 28.9664C3.98689 29.4989 4.65322 29.8837 5.38342 30.0835C8.10676 30.8118 19.0001 30.8118 19.0001 30.8118C19.0001 30.8118 29.8934 30.8118 32.6168 30.0835C33.3621 29.8726 34.0386 29.4688 34.578 28.9128C35.1173 28.3568 35.5003 27.6683 35.6884 26.9168C36.183 24.1738 36.4268 21.3915 36.4168 18.6043C36.4345 15.7748 36.1907 12.9498 35.6884 10.1652Z" stroke="white" stroke-width="4" stroke-linecap="round" stroke-linejoin="round"/>
<path d="M15.4376 23.7818L24.5418 18.6043L15.4376 13.4268L15.4376 23.7818Z" stroke="white" stroke-width="4" stroke-linecap="round" stroke-linejoin="round"/>
</g>
<defs>
<clipPath id="clip0_13_180">
<rect width="38" height="38" fill="white"/>
</clipPath>
</defs>
</svg>
